<svg xmlns="http://www.w3.org/2000/svg" version="1.1" xmlns:xlink="http://www.w3.org/1999/xlink" xmlns:svgjs="http://svgjs.dev/svgjs" width="128" height="128" viewBox="0 0 128 128"><g transform="matrix(0.8046875,0,0,0.8046875,12.352095933660479,1.0319052419354833)"><svg viewBox="0 0 127 155" data-background-color="#ffffff" preserveAspectRatio="xMidYMid meet" height="156" width="128" xmlns="http://www.w3.org/2000/svg" xmlns:xlink="http://www.w3.org/1999/xlink"><g id="tight-bounds" transform="matrix(1,0,0,1,0.18236714975843427,0.25)"><svg viewBox="0 0 126.6352657004831 154.5" height="154.5" width="126.6352657004831"><g><svg viewBox="0 0 126.6352657004831 154.5" height="154.5" width="126.6352657004831"><g><svg viewBox="0 0 126.6352657004831 154.5" height="154.5" width="126.6352657004831"><g id="textblocktransform"><svg viewBox="0 0 126.6352657004831 154.5" height="154.5" width="126.6352657004831" id="textblock"><g><svg viewBox="0 0 126.6352657004831 154.5" height="154.5" width="126.6352657004831"><g transform="matrix(1,0,0,1,0,0)"><svg width="126.6352657004831" viewBox="2 -31.05 25.45 31.05" height="154.5" data-palette-color="#2693c1"><path d="M27.45-9.1L27.45-9.1Q27.45 0 16.15 0L16.15 0 2 0 2-31.05 15.95-31.05Q21.55-31.05 24.23-29.05 26.9-27.05 26.9-22.9 26.9-18.75 23.4-16.5L23.4-16.5 23.4-16.3Q27.45-14.45 27.45-9.1ZM14.1-6.2Q15.45-6.2 15.9-6.78 16.35-7.35 16.35-9.2 16.35-11.05 15.88-11.83 15.4-12.6 14.1-12.6L14.1-12.6 12.65-12.6 12.65-6.2 14.1-6.2ZM14.15-18.1Q15.05-18.1 15.48-18.7 15.9-19.3 15.9-20.78 15.9-22.25 15.48-22.9 15.05-23.55 14.1-23.55L14.1-23.55 12.65-23.55 12.65-18.1 14.15-18.1Z" opacity="1" transform="matrix(1,0,0,1,0,0)" fill="#2693c1" class="undefined-text-0" data-fill-palette-color="primary" id="text-0"></path></svg></g></svg></g></svg></g></svg></g></svg></g><defs></defs></svg><rect width="126.6352657004831" height="154.5" fill="none" stroke="none" visibility="hidden"></rect></g></svg></g></svg>